<svg id="svg" version="1.1" xmlns="http://www.w3.org/2000/svg" xmlns:xlink="http://www.w3.org/1999/xlink" width="400" height="400" viewBox="0, 0, 400,400"><g id="svgg"><path id="path0" d="M347.900 15.232 C 347.515 15.456,347.200 15.905,347.200 16.230 C 347.200 16.566,346.683 16.923,346.000 17.060 L 344.800 17.300 344.800 24.050 C 344.800 30.561,344.771 30.800,343.990 30.800 C 343.091 30.800,342.400 32.173,342.400 33.959 C 342.400 35.303,338.853 36.252,336.768 35.466 C 335.482 34.980,333.600 35.619,333.600 36.541 C 333.600 36.849,333.060 37.208,332.400 37.340 L 331.200 37.580 331.200 40.764 C 331.200 45.193,331.525 45.880,333.780 46.218 C 335.355 46.454,335.600 46.619,335.600 47.445 C 335.600 48.334,335.750 48.400,337.768 48.400 C 339.852 48.400,339.947 48.447,340.200 49.600 C 340.404 50.530,340.681 50.800,341.432 50.800 C 342.774 50.800,342.959 57.859,341.638 58.684 C 341.218 58.945,340.674 59.769,340.429 60.513 C 339.994 61.829,339.904 61.876,337.098 62.233 C 333.655 62.671,333.215 63.221,333.206 67.100 C 333.201 68.975,333.060 69.600,332.639 69.600 C 331.486 69.600,331.200 72.063,331.200 82.013 C 331.200 91.550,331.171 91.914,330.405 92.115 C 329.099 92.456,328.800 94.116,328.800 101.026 C 328.800 106.343,328.695 107.600,328.249 107.600 C 327.130 107.600,326.862 108.735,326.580 114.670 C 326.297 120.611,326.271 120.746,325.346 120.978 C 324.408 121.213,324.400 121.260,324.400 126.845 C 324.400 132.149,324.353 132.487,323.596 132.685 C 322.553 132.958,322.240 134.242,322.218 138.338 C 322.198 141.966,323.213 143.593,325.500 143.598 C 326.966 143.601,326.880 151.165,325.400 152.329 L 324.400 153.115 324.400 162.158 C 324.400 169.832,324.311 171.200,323.814 171.200 C 323.492 171.200,323.037 171.557,322.804 171.993 C 322.386 172.774,321.820 172.788,288.689 172.893 L 255.000 173.000 253.500 174.561 L 252.000 176.123 252.000 219.181 C 252.000 252.138,252.113 262.353,252.480 262.720 C 252.837 263.077,256.898 263.200,268.280 263.200 L 283.600 263.200 283.600 235.000 L 283.600 206.800 306.200 206.800 L 328.800 206.800 328.840 208.900 C 328.897 211.887,329.277 212.978,330.316 213.128 C 331.171 213.251,331.200 213.410,331.200 218.028 L 331.200 222.800 330.000 222.800 C 328.864 222.800,328.800 222.887,328.800 224.418 C 328.800 225.581,328.537 226.300,327.864 226.972 C 326.706 228.130,326.400 232.957,326.400 250.036 C 326.400 260.790,326.374 261.154,325.601 261.400 C 323.984 261.913,323.868 269.696,325.474 269.924 C 326.069 270.009,326.429 270.423,326.605 271.224 L 326.864 272.400 331.204 272.400 C 335.401 272.400,335.549 272.430,335.672 273.300 L 335.800 274.200 346.900 274.306 L 358.000 274.413 358.000 272.872 C 358.000 271.665,358.260 271.101,359.200 270.263 C 361.034 268.629,361.042 262.578,359.212 260.948 C 358.039 259.903,358.023 259.831,357.912 255.245 C 357.806 250.864,357.749 250.578,356.900 250.205 C 356.034 249.825,355.998 249.605,355.953 244.405 C 355.895 237.768,355.690 236.642,354.510 236.474 C 353.666 236.353,353.621 236.146,353.513 231.874 C 353.404 227.578,353.364 227.395,352.500 227.272 C 351.613 227.146,351.600 227.057,351.577 221.072 C 351.548 213.433,351.297 211.844,350.095 211.672 C 349.245 211.551,349.200 211.366,349.200 207.972 L 349.200 204.400 352.573 204.400 L 355.947 204.400 356.073 205.500 C 356.191 206.523,356.344 206.608,358.262 206.720 C 360.059 206.824,360.354 206.963,360.565 207.802 C 360.884 209.072,362.080 209.268,368.600 209.119 L 373.800 209.000 373.922 207.741 C 374.004 206.896,374.299 206.415,374.817 206.280 C 375.893 205.998,376.400 204.403,376.400 201.305 C 376.400 199.647,376.603 198.428,376.946 198.031 C 377.950 196.871,378.083 195.283,377.247 194.447 C 376.826 194.026,376.364 193.146,376.220 192.492 C 375.925 191.148,374.600 190.800,369.772 190.800 C 367.467 190.800,367.245 190.724,367.128 189.900 C 367.016 189.116,366.729 188.984,364.900 188.879 C 363.442 188.795,362.800 188.590,362.800 188.208 C 362.800 187.127,361.569 186.400,359.741 186.400 L 357.938 186.400 359.169 185.169 L 360.400 183.938 360.400 174.985 L 360.400 166.032 363.700 165.916 C 366.777 165.808,367.009 165.739,367.128 164.900 C 367.250 164.042,367.426 164.000,370.928 163.996 C 376.088 163.989,377.577 163.687,378.099 162.542 C 378.415 161.849,378.854 161.600,379.764 161.600 L 381.000 161.600 380.898 262.200 L 380.797 362.800 199.998 362.800 L 19.200 362.800 19.200 214.800 L 19.200 66.800 174.571 66.800 C 341.658 66.800,331.200 66.920,331.200 64.999 C 331.200 64.700,331.605 64.398,332.100 64.328 C 332.744 64.236,333.036 63.888,333.127 63.100 C 333.238 62.134,333.423 62.000,334.653 62.000 C 336.330 62.000,337.600 61.391,337.600 60.586 C 337.600 60.202,338.013 60.000,338.800 60.000 L 340.000 60.000 340.000 55.400 L 340.000 50.800 338.800 50.800 C 337.787 50.800,337.600 50.644,337.600 49.800 C 337.600 48.855,337.480 48.800,335.400 48.800 C 333.222 48.800,333.200 48.788,333.200 47.600 C 333.200 46.595,333.041 46.400,332.227 46.400 C 331.462 46.400,331.226 46.164,331.127 45.300 L 331.000 44.200 165.500 44.100 L 0.000 43.999 0.000 214.600 L 0.000 385.200 200.000 385.200 L 400.000 385.200 400.000 270.000 L 400.000 154.800 398.900 154.768 C 398.295 154.751,398.025 154.646,398.300 154.535 C 399.377 154.101,398.960 146.127,397.846 145.847 C 397.066 145.652,396.840 145.260,396.607 143.704 C 396.450 142.657,396.114 141.668,395.861 141.506 C 395.564 141.317,395.649 141.210,396.100 141.206 C 396.573 141.202,396.800 141.510,396.800 142.157 C 396.800 143.174,397.459 143.600,399.033 143.600 L 400.000 143.600 400.000 93.800 L 400.000 44.000 379.259 44.000 L 358.518 44.000 358.236 50.775 C 358.081 54.502,358.079 59.522,358.231 61.932 L 358.508 66.313 359.954 66.552 C 360.749 66.684,365.761 66.793,371.090 66.796 L 380.781 66.800 380.890 97.815 C 381.009 131.419,380.881 129.579,383.100 129.594 C 383.595 129.597,384.000 129.780,384.000 130.000 C 384.000 130.220,383.820 130.400,383.600 130.400 C 383.380 130.400,383.200 130.850,383.200 131.400 C 383.200 132.279,383.028 132.400,381.782 132.400 C 380.802 132.400,380.054 132.709,379.364 133.400 C 378.572 134.192,377.960 134.400,376.424 134.400 C 374.821 134.400,374.262 134.608,373.200 135.600 C 372.133 136.596,371.582 136.800,369.949 136.800 C 368.265 136.800,367.920 136.937,367.548 137.754 C 367.146 138.637,366.793 138.734,362.857 139.054 C 358.869 139.378,358.592 139.457,358.472 140.300 C 358.351 141.152,358.165 141.200,354.972 141.200 L 351.600 141.200 351.600 139.064 C 351.600 137.174,351.715 136.876,352.600 136.473 L 353.600 136.017 353.600 102.409 L 353.600 68.800 354.553 68.800 C 355.980 68.800,355.989 68.669,355.995 47.595 L 356.000 28.190 356.900 27.795 C 358.395 27.139,358.495 19.740,357.014 19.368 C 356.313 19.192,356.000 18.842,356.000 18.233 C 356.000 15.637,350.624 13.645,347.900 15.232 M41.159 107.788 C 39.661 108.617,39.597 109.825,39.617 137.159 C 39.636 162.304,39.740 164.085,41.259 165.266 C 42.749 166.426,71.772 166.201,72.633 165.024 C 73.562 163.752,73.472 108.724,72.539 107.949 C 71.531 107.112,42.649 106.964,41.159 107.788 M107.680 107.680 C 107.315 108.045,107.200 115.876,107.200 140.480 L 107.200 172.800 75.626 172.800 C 42.771 172.800,42.000 172.839,42.000 174.495 C 42.000 175.061,41.656 175.561,41.100 175.805 C 39.644 176.444,39.581 178.475,39.694 221.286 C 39.794 259.337,39.840 261.611,40.514 262.286 C 41.374 263.147,70.864 263.622,72.401 262.800 C 73.188 262.378,73.200 261.956,73.200 234.586 L 73.200 206.800 90.197 206.800 L 107.195 206.800 107.297 234.900 L 107.400 263.000 123.100 263.105 L 138.800 263.209 138.800 185.451 L 138.800 107.693 137.900 107.452 C 136.069 106.961,108.188 107.172,107.680 107.680 M148.267 107.467 C 148.120 107.613,148.000 120.846,148.000 136.872 L 148.000 166.010 162.700 165.905 L 177.400 165.800 177.503 136.825 C 177.584 113.910,177.500 107.784,177.103 107.531 C 176.498 107.148,148.648 107.085,148.267 107.467 M213.888 107.445 C 213.730 107.604,213.600 131.553,213.600 160.667 L 213.600 213.600 212.587 213.600 C 211.991 213.600,211.466 213.887,211.310 214.300 C 210.970 215.198,210.177 216.000,209.629 216.000 C 209.393 216.000,209.200 216.450,209.200 217.000 C 209.200 217.803,209.001 218.000,208.187 218.000 C 207.591 218.000,207.066 218.287,206.910 218.700 C 206.573 219.589,205.989 220.173,205.100 220.510 C 204.687 220.666,204.400 221.191,204.400 221.787 C 204.400 222.601,204.203 222.800,203.400 222.800 C 202.850 222.800,202.400 222.993,202.400 223.229 C 202.400 223.777,201.598 224.570,200.700 224.910 C 200.287 225.066,200.000 225.591,200.000 226.187 C 200.000 227.011,199.806 227.200,198.963 227.200 C 198.284 227.200,197.857 227.460,197.729 227.950 C 197.337 229.450,194.800 230.048,194.800 228.641 C 194.800 228.009,193.104 227.200,191.781 227.200 C 190.954 227.200,190.800 227.008,190.800 225.982 C 190.800 224.366,189.234 222.800,187.618 222.800 C 186.592 222.800,186.400 222.646,186.400 221.819 C 186.400 219.638,184.847 218.000,182.781 218.000 C 182.273 218.000,182.000 217.727,182.000 217.219 C 182.000 215.242,180.364 213.600,178.395 213.600 C 177.652 213.600,177.625 213.009,177.514 193.820 C 177.424 178.244,177.289 173.929,176.880 173.520 C 176.051 172.692,148.917 172.768,148.392 173.600 C 147.883 174.405,147.871 224.410,148.380 225.746 C 148.679 226.534,149.136 226.801,150.540 227.012 C 152.283 227.273,152.327 227.316,152.585 229.038 C 152.883 231.029,153.594 231.600,155.774 231.600 C 157.188 231.600,157.200 231.615,157.200 233.320 C 157.200 235.481,157.719 236.000,159.880 236.000 C 161.524 236.000,161.600 236.053,161.600 237.200 C 161.600 238.267,161.733 238.400,162.800 238.400 C 163.947 238.400,164.000 238.476,164.000 240.120 C 164.000 242.281,164.519 242.800,166.680 242.800 C 168.385 242.800,168.400 242.812,168.400 244.226 C 168.400 246.406,168.971 247.117,170.962 247.415 C 172.684 247.673,172.727 247.717,172.988 249.460 C 173.278 251.392,174.100 252.000,176.426 252.000 C 177.543 252.000,177.600 252.084,177.600 253.720 C 177.600 255.881,178.119 256.400,180.280 256.400 C 181.985 256.400,182.000 256.412,182.000 257.826 C 182.000 260.018,182.569 260.716,184.601 261.021 C 186.167 261.256,186.400 261.417,186.400 262.266 L 186.400 263.241 195.797 263.121 L 205.194 263.000 206.213 261.900 C 206.774 261.295,207.563 260.800,207.966 260.800 C 208.462 260.800,208.778 260.410,208.940 259.600 C 209.083 258.887,209.431 258.400,209.799 258.400 C 210.139 258.400,210.622 257.950,210.873 257.400 C 211.172 256.744,211.654 256.400,212.274 256.400 C 212.999 256.400,213.274 256.128,213.453 255.235 C 213.593 254.537,214.001 253.988,214.473 253.865 C 214.905 253.752,215.352 253.305,215.465 252.873 C 215.588 252.401,216.137 251.993,216.835 251.853 C 217.735 251.673,218.000 251.401,218.000 250.657 C 218.000 250.018,218.280 249.620,218.830 249.476 C 219.286 249.357,219.759 248.877,219.882 248.409 C 220.021 247.876,220.532 247.474,221.252 247.330 C 222.133 247.153,222.400 246.877,222.400 246.140 C 222.400 245.493,222.715 245.060,223.366 244.813 C 223.897 244.611,224.449 244.076,224.593 243.623 C 224.759 243.099,225.196 242.800,225.795 242.800 C 226.508 242.800,226.798 242.519,226.991 241.641 C 227.143 240.948,227.570 240.396,228.053 240.270 C 228.496 240.154,228.957 239.686,229.076 239.230 C 229.196 238.773,229.596 238.400,229.967 238.400 C 230.846 238.400,231.600 237.625,231.600 236.720 C 231.600 236.227,231.902 236.000,232.557 236.000 C 233.242 236.000,233.584 235.718,233.763 235.006 C 233.917 234.393,234.393 233.917,235.006 233.763 C 235.718 233.584,236.000 233.242,236.000 232.557 C 236.000 231.902,236.227 231.600,236.720 231.600 C 237.625 231.600,238.400 230.846,238.400 229.967 C 238.400 229.596,238.773 229.196,239.230 229.076 C 239.686 228.957,240.154 228.496,240.270 228.053 C 240.396 227.570,240.948 227.143,241.641 226.991 C 242.589 226.783,242.800 226.529,242.800 225.595 C 242.800 224.809,243.046 224.376,243.591 224.203 C 244.060 224.054,244.556 223.351,244.809 222.476 C 245.326 220.691,245.186 108.253,244.667 107.733 C 244.258 107.324,214.290 107.043,213.888 107.445 M253.501 107.484 C 252.783 107.594,252.328 107.956,252.188 108.526 C 251.615 110.866,252.198 165.228,252.800 165.609 C 253.150 165.830,259.687 165.990,268.503 165.994 L 283.605 166.000 283.503 136.700 L 283.400 107.400 269.000 107.357 C 261.080 107.334,254.105 107.391,253.501 107.484 M388.000 131.000 C 388.233 131.612,388.694 132.000,389.190 132.000 C 389.777 132.000,389.987 132.248,389.954 132.900 C 389.919 133.577,389.862 133.627,389.724 133.100 C 389.620 132.700,389.163 132.400,388.658 132.400 C 388.045 132.400,387.637 132.034,387.322 131.200 C 387.061 130.508,387.028 130.000,387.245 130.000 C 387.451 130.000,387.791 130.450,388.000 131.000 M393.680 136.800 C 394.213 136.800,394.400 137.111,394.400 138.000 C 394.400 139.067,394.267 139.200,393.200 139.200 C 392.057 139.200,392.000 139.120,392.000 137.520 C 392.000 136.213,392.107 135.947,392.480 136.320 C 392.744 136.584,393.284 136.800,393.680 136.800 M396.800 156.000 L 396.800 157.200 394.500 157.146 C 393.235 157.116,392.605 157.013,393.099 156.918 C 393.639 156.814,394.096 156.355,394.243 155.772 C 394.641 154.184,396.800 154.376,396.800 156.000 M391.200 158.200 C 390.683 158.750,390.047 159.200,389.786 159.200 C 389.495 159.200,389.385 158.812,389.502 158.200 C 389.656 157.393,389.929 157.200,390.916 157.200 L 392.139 157.200 391.200 158.200 M388.200 159.506 C 387.980 159.668,387.601 160.160,387.359 160.600 C 386.912 161.410,382.793 162.063,382.805 161.321 C 382.837 159.480,383.253 159.200,385.947 159.206 C 387.406 159.209,388.420 159.344,388.200 159.506 M146.400 281.591 C 145.781 281.982,145.220 335.485,145.801 338.700 L 146.036 340.000 155.018 340.000 L 164.000 340.000 164.000 332.200 L 164.000 324.400 171.550 324.400 C 180.452 324.400,181.448 324.261,181.770 322.977 C 181.973 322.167,182.286 322.025,184.102 321.921 C 186.058 321.808,186.209 321.726,186.327 320.700 C 186.431 319.790,186.648 319.600,187.580 319.600 C 188.384 319.600,188.769 319.362,188.924 318.770 C 189.043 318.314,189.514 317.843,189.970 317.724 C 190.562 317.569,190.800 317.184,190.800 316.380 C 190.800 315.448,190.990 315.231,191.900 315.127 C 192.759 315.028,193.027 314.763,193.125 313.919 C 193.198 313.280,193.561 312.739,194.012 312.596 C 196.232 311.891,196.370 294.116,194.163 293.110 C 193.611 292.859,193.194 292.273,193.121 291.646 C 193.028 290.840,192.748 290.571,191.900 290.473 C 190.995 290.369,190.800 290.150,190.800 289.240 C 190.800 287.872,188.837 286.000,187.403 286.000 C 186.673 286.000,186.400 285.786,186.400 285.214 C 186.400 284.191,185.247 283.600,183.254 283.600 C 181.901 283.600,181.636 283.462,181.528 282.700 C 181.421 281.947,181.072 281.757,179.400 281.535 C 176.219 281.114,147.077 281.163,146.400 281.591 M245.467 281.467 C 245.320 281.613,245.200 294.843,245.200 310.867 L 245.200 340.000 254.200 340.000 L 263.200 340.000 263.200 332.200 L 263.200 324.400 265.600 324.400 C 267.893 324.400,268.000 324.444,268.000 325.400 C 268.000 325.950,268.193 326.400,268.429 326.400 C 269.066 326.400,270.000 327.453,270.000 328.171 C 270.000 328.517,270.283 328.800,270.629 328.800 C 271.651 328.800,272.336 329.783,272.473 331.444 C 272.584 332.806,272.737 333.016,273.700 333.127 C 274.621 333.233,274.800 333.444,274.800 334.427 C 274.800 335.412,274.961 335.600,275.800 335.600 C 276.594 335.600,276.800 335.801,276.800 336.578 C 276.800 337.241,277.144 337.724,277.869 338.078 C 278.508 338.390,279.124 339.163,279.402 340.000 C 280.410 343.035,290.400 343.689,290.400 340.720 C 290.400 340.161,290.719 340.000,291.826 340.000 C 293.508 340.000,294.800 339.397,294.800 338.612 C 294.800 338.300,295.285 337.997,295.900 337.927 C 297.615 337.729,297.638 331.474,295.924 331.276 C 295.093 331.180,294.820 330.907,294.724 330.076 C 294.636 329.313,294.339 328.963,293.700 328.872 C 293.099 328.787,292.800 328.470,292.800 327.921 C 292.800 327.468,292.170 326.400,291.400 325.547 C 290.630 324.695,290.000 323.724,290.000 323.389 C 290.000 323.054,289.550 322.609,289.000 322.400 C 288.308 322.137,288.000 321.717,288.000 321.036 C 288.000 320.271,287.757 320.016,286.900 319.887 L 285.800 319.720 286.900 319.660 C 287.774 319.612,288.000 319.405,288.000 318.650 C 288.000 317.914,288.271 317.646,289.200 317.460 C 290.136 317.273,290.400 317.007,290.400 316.253 C 290.400 315.570,290.678 315.217,291.347 315.049 C 292.373 314.792,292.787 313.376,292.796 310.100 C 292.798 309.165,292.967 308.400,293.171 308.400 C 295.147 308.400,295.725 298.404,293.800 297.527 C 292.915 297.124,292.795 296.814,292.760 294.836 C 292.704 291.715,292.335 290.624,291.284 290.472 C 290.665 290.383,290.400 290.068,290.400 289.422 C 290.400 288.718,290.117 288.443,289.200 288.260 C 288.247 288.069,288.000 287.812,288.000 287.010 C 288.000 286.054,287.884 286.000,285.827 286.000 C 283.753 286.000,283.647 285.950,283.527 284.900 C 283.424 284.013,283.170 283.774,282.210 283.665 C 281.556 283.590,280.610 283.119,280.108 282.617 C 279.606 282.115,278.521 281.592,277.697 281.456 C 275.670 281.121,245.803 281.131,245.467 281.467 M42.267 281.867 C 42.120 282.013,42.000 282.511,42.000 282.972 C 42.000 283.458,41.622 283.976,41.100 284.205 C 39.742 284.801,39.674 286.140,39.635 313.074 C 39.599 337.911,39.677 339.317,41.116 339.773 C 41.536 339.907,42.082 340.462,42.331 341.008 L 42.783 342.000 62.322 342.000 L 81.861 342.000 82.800 341.000 C 83.317 340.450,83.978 340.000,84.270 340.000 C 84.689 340.000,84.800 338.622,84.800 333.447 C 84.800 325.521,86.483 326.413,71.500 326.405 L 60.000 326.400 60.000 323.006 L 60.000 319.613 71.100 319.506 L 82.200 319.400 82.309 312.252 C 82.385 307.320,82.277 304.934,81.960 304.552 C 81.591 304.108,79.407 304.000,70.751 304.000 L 60.000 304.000 60.000 300.600 L 60.000 297.200 71.200 297.200 L 82.400 297.200 82.400 290.033 C 82.400 286.091,82.291 282.581,82.157 282.233 C 81.904 281.573,42.918 281.215,42.267 281.867 M198.925 281.914 C 197.689 282.701,197.600 284.709,197.600 311.984 L 197.600 339.515 198.760 340.758 L 199.921 342.000 219.750 342.000 L 239.579 342.000 240.200 340.801 C 240.700 339.832,240.799 338.350,240.710 333.101 L 240.600 326.600 228.300 326.494 L 216.000 326.388 216.000 322.994 L 216.000 319.600 227.200 319.600 L 238.400 319.600 238.400 311.800 L 238.400 304.000 227.200 304.000 L 216.000 304.000 216.000 300.606 L 216.000 297.212 228.300 297.106 L 240.600 297.000 240.600 289.867 C 240.600 283.268,240.542 282.692,239.824 282.167 C 238.969 281.543,199.889 281.301,198.925 281.914 M301.846 284.224 C 301.240 285.802,301.580 299.107,302.233 299.357 C 302.581 299.491,306.181 299.600,310.233 299.600 L 317.600 299.600 317.600 321.008 L 317.600 342.415 326.500 342.308 L 335.400 342.200 335.503 320.932 L 335.607 299.663 342.984 299.532 C 348.360 299.436,350.502 299.259,350.881 298.880 C 351.624 298.135,351.623 285.063,350.880 284.320 C 350.006 283.445,302.181 283.352,301.846 284.224 M173.965 298.011 C 174.314 298.418,175.230 299.091,176.000 299.508 C 177.881 300.524,178.323 303.942,176.670 304.695 C 176.132 304.940,175.577 305.638,175.419 306.266 C 174.904 308.320,174.668 308.400,169.151 308.400 L 164.000 308.400 163.999 302.700 L 163.999 297.000 168.665 297.136 C 172.601 297.251,173.429 297.388,173.965 298.011 M272.615 298.123 C 272.827 298.605,273.394 299.056,273.876 299.125 C 274.489 299.212,274.789 299.572,274.876 300.325 C 274.964 301.087,275.262 301.437,275.900 301.528 C 276.594 301.626,276.800 301.918,276.800 302.800 C 276.800 303.682,276.594 303.974,275.900 304.072 C 275.256 304.164,274.964 304.512,274.873 305.300 C 274.783 306.082,274.521 306.400,273.965 306.400 C 273.519 306.400,272.987 306.830,272.727 307.400 C 272.280 308.381,272.186 308.400,267.736 308.400 L 263.200 308.400 263.199 302.700 L 263.198 297.000 267.714 297.123 C 271.920 297.237,272.256 297.306,272.615 298.123 " stroke="none" fill="#040404" fill-rule="evenodd"></path><path id="path1" d="M110.270 281.700 C 109.648 282.155,109.597 283.273,109.694 294.200 L 109.800 306.200 113.100 306.316 L 116.400 306.432 116.400 309.787 L 116.400 313.141 112.999 313.271 L 109.598 313.400 109.599 309.900 L 109.600 306.400 97.200 306.400 L 84.800 306.400 84.800 310.811 L 84.800 315.222 97.195 315.111 L 109.589 315.000 109.695 327.400 L 109.800 339.800 113.967 339.915 C 119.229 340.060,118.787 341.234,118.794 327.100 L 118.800 315.200 130.600 315.200 C 137.090 315.200,142.503 315.245,142.628 315.300 C 143.229 315.563,143.518 313.863,143.462 310.400 L 143.400 306.600 131.000 306.495 L 118.600 306.389 118.714 294.495 C 118.850 280.377,119.140 281.200,114.032 281.200 C 112.200 281.200,110.676 281.402,110.270 281.700 " stroke="none" fill="#c40c24" fill-rule="evenodd"></path><path id="path2" d="" stroke="none" fill="#080404" fill-rule="evenodd"></path><path id="path3" d="" stroke="none" fill="#380814" fill-rule="evenodd"></path><path id="path4" d="" stroke="none" fill="#040818" fill-rule="evenodd"></path></g></svg>