<?xml version="1.0" encoding="utf-8"?>
<!-- Generator: Adobe Illustrator 22.0.0, SVG Export Plug-In . SVG Version: 6.00 Build 0)  -->
<svg version="1.1" id="Layer_1" xmlns="http://www.w3.org/2000/svg" xmlns:xlink="http://www.w3.org/1999/xlink" x="0px" y="0px"
	 viewBox="0 0 211.4 77.8" style="enable-background:new 0 0 211.4 77.8;" xml:space="preserve">
<style type="text/css">
	.st0{fill:#1BD4E3;}
</style>
<g>
	<g>
		<path d="M42.3,25c-1-1.1-2.2-2-3.8-2.6c-1.6-0.7-3.4-1-5.5-1c-3,0-5.2,0.6-6.6,1.7c-1.4,1.1-2.1,2.7-2.1,4.6c0,1,0.2,1.9,0.6,2.5
			c0.4,0.7,0.9,1.2,1.7,1.7s1.8,0.9,3,1.2c1.2,0.4,2.6,0.7,4.2,1.1c1.8,0.4,3.5,0.8,4.9,1.3c1.5,0.5,2.7,1.1,3.7,1.8
			c1,0.7,1.8,1.6,2.4,2.6c0.5,1,0.8,2.3,0.8,3.8c0,1.6-0.3,2.9-0.9,4.1c-0.6,1.2-1.5,2.1-2.5,2.9c-1.1,0.8-2.4,1.3-3.9,1.7
			c-1.5,0.4-3.2,0.6-4.9,0.6c-5.3,0-9.8-1.6-13.7-4.9l1.7-2.7c0.6,0.6,1.3,1.2,2.2,1.8c0.8,0.6,1.8,1.1,2.8,1.5c1,0.4,2.2,0.8,3.3,1
			c1.2,0.2,2.4,0.4,3.7,0.4c2.7,0,4.8-0.5,6.4-1.5c1.5-1,2.3-2.5,2.3-4.4c0-1.1-0.2-1.9-0.6-2.7c-0.4-0.7-1.1-1.3-1.9-1.9
			c-0.9-0.5-1.9-1-3.2-1.4c-1.3-0.4-2.8-0.8-4.5-1.2c-1.8-0.4-3.4-0.8-4.7-1.3c-1.3-0.4-2.5-1-3.4-1.7c-0.9-0.7-1.6-1.5-2.1-2.4
			c-0.5-0.9-0.7-2.1-0.7-3.5c0-1.6,0.3-3,0.9-4.2c0.6-1.2,1.4-2.3,2.5-3.1c1.1-0.8,2.4-1.4,3.8-1.9c1.5-0.4,3.1-0.6,4.9-0.6
			c2.3,0,4.3,0.3,6.1,1c1.8,0.7,3.4,1.7,4.8,2.9L42.3,25z"/>
		<path d="M77.9,21.6H65.7v31.1h-3.4V21.6H50.2v-3h27.6V21.6z"/>
		<path d="M108.3,49.7v3H85.4V18.6h22.5v3H88.7v12.3h16.7v2.8H88.7v13H108.3z"/>
		<path d="M117,52.7V18.6h14.4c1.5,0,2.8,0.3,4.1,0.9c1.2,0.6,2.3,1.4,3.2,2.4c0.9,1,1.6,2.2,2.1,3.4c0.5,1.3,0.7,2.6,0.7,3.9
			c0,1.2-0.2,2.4-0.6,3.6c-0.4,1.1-0.9,2.2-1.5,3.1c-0.7,0.9-1.4,1.7-2.4,2.3c-0.9,0.6-2,1-3.1,1.3l8.4,13.2h-3.8l-8-12.6h-10.1
			v12.6H117z M120.4,37.2h11.1c1,0,1.9-0.2,2.7-0.6c0.8-0.4,1.5-1,2.1-1.8c0.6-0.7,1-1.6,1.3-2.5c0.3-0.9,0.5-1.9,0.5-2.9
			c0-1-0.2-2-0.6-3c-0.4-0.9-0.9-1.8-1.5-2.5c-0.6-0.7-1.4-1.3-2.2-1.7c-0.8-0.4-1.7-0.6-2.7-0.6h-10.8V37.2z"/>
		<path d="M173.6,49.7v3h-22.9V18.6h22.5v3h-19.1v12.3h16.7v2.8h-16.7v13H173.6z"/>
		<path d="M195.4,53c-2.4,0-4.5-0.5-6.5-1.5c-2-1-3.7-2.3-5.1-3.9c-1.4-1.6-2.5-3.5-3.3-5.5s-1.2-4.2-1.2-6.4c0-2.3,0.4-4.4,1.2-6.5
			c0.8-2.1,1.9-3.9,3.4-5.5c1.4-1.6,3.1-2.9,5.1-3.8c2-0.9,4.1-1.4,6.3-1.4c2.4,0,4.5,0.5,6.5,1.5c2,1,3.6,2.3,5,4
			c1.4,1.6,2.5,3.5,3.2,5.5s1.2,4.2,1.2,6.3c0,2.3-0.4,4.4-1.2,6.5c-0.8,2.1-1.9,3.9-3.4,5.5c-1.4,1.6-3.1,2.8-5.1,3.8
			C199.8,52.5,197.7,53,195.4,53z M182.8,35.7c0,1.9,0.3,3.6,0.9,5.4c0.6,1.7,1.5,3.2,2.6,4.6c1.1,1.3,2.4,2.4,4,3.2
			c1.5,0.8,3.2,1.2,5.1,1.2c1.9,0,3.7-0.4,5.2-1.2c1.6-0.8,2.9-1.9,4-3.3c1.1-1.3,1.9-2.9,2.5-4.6c0.6-1.7,0.9-3.4,0.9-5.2
			c0-1.9-0.3-3.6-0.9-5.4c-0.6-1.7-1.5-3.2-2.6-4.5c-1.1-1.3-2.4-2.4-4-3.1s-3.2-1.2-5.1-1.2c-1.9,0-3.7,0.4-5.2,1.2
			c-1.6,0.8-2.9,1.9-4,3.2c-1.1,1.3-1.9,2.9-2.5,4.6C183.1,32.2,182.8,33.9,182.8,35.7z"/>
	</g>
	<g>
		<path d="M75.7,77.7v-9.2h3.9c0.4,0,0.8,0.1,1.2,0.3c0.4,0.2,0.7,0.4,0.9,0.7c0.3,0.3,0.5,0.6,0.6,1s0.2,0.7,0.2,1.1
			c0,0.4-0.1,0.8-0.2,1.1s-0.3,0.7-0.6,1s-0.6,0.5-0.9,0.7s-0.7,0.3-1.2,0.3h-2.2v3.1H75.7z M77.5,73.1h2.1c0.3,0,0.6-0.1,0.8-0.4
			c0.2-0.3,0.3-0.6,0.3-1.1c0-0.2,0-0.4-0.1-0.6c-0.1-0.2-0.2-0.3-0.3-0.5c-0.1-0.1-0.2-0.2-0.4-0.3c-0.2-0.1-0.3-0.1-0.5-0.1h-2
			V73.1z"/>
		<path d="M87.4,77.8c-0.7,0-1.3-0.1-1.8-0.4c-0.6-0.3-1-0.6-1.4-1.1c-0.4-0.4-0.7-0.9-0.9-1.5c-0.2-0.6-0.3-1.1-0.3-1.7
			c0-0.6,0.1-1.2,0.3-1.8c0.2-0.6,0.5-1.1,0.9-1.5c0.4-0.4,0.9-0.8,1.4-1c0.6-0.3,1.2-0.4,1.8-0.4c0.7,0,1.3,0.1,1.8,0.4
			c0.6,0.3,1,0.6,1.4,1.1c0.4,0.4,0.7,0.9,0.9,1.5c0.2,0.6,0.3,1.1,0.3,1.7c0,0.6-0.1,1.2-0.3,1.8c-0.2,0.6-0.5,1.1-0.9,1.5
			c-0.4,0.4-0.9,0.8-1.4,1C88.7,77.7,88.1,77.8,87.4,77.8z M84.7,73.1c0,0.4,0.1,0.8,0.2,1.2c0.1,0.4,0.3,0.7,0.5,1
			c0.2,0.3,0.5,0.5,0.8,0.7s0.7,0.3,1.1,0.3c0.4,0,0.8-0.1,1.2-0.3c0.3-0.2,0.6-0.4,0.8-0.7c0.2-0.3,0.4-0.6,0.5-1
			c0.1-0.4,0.2-0.7,0.2-1.1c0-0.4-0.1-0.8-0.2-1.2c-0.1-0.4-0.3-0.7-0.5-1c-0.2-0.3-0.5-0.5-0.8-0.7c-0.3-0.2-0.7-0.3-1.1-0.3
			c-0.4,0-0.8,0.1-1.2,0.3c-0.3,0.2-0.6,0.4-0.8,0.7c-0.2,0.3-0.4,0.6-0.5,1C84.8,72.3,84.7,72.7,84.7,73.1z"/>
		<path d="M93,77.7v-9.2h4.1c0.4,0,0.8,0.1,1.2,0.3c0.4,0.2,0.7,0.4,0.9,0.7c0.3,0.3,0.5,0.6,0.6,1c0.1,0.4,0.2,0.7,0.2,1.1
			c0,0.6-0.1,1.1-0.4,1.6c-0.3,0.5-0.7,0.8-1.2,1.1l2.1,3.5h-2l-1.9-3.1h-1.8v3.1H93z M94.8,73.1H97c0.2,0,0.3,0,0.5-0.1
			c0.1-0.1,0.3-0.2,0.4-0.3s0.2-0.3,0.2-0.5c0.1-0.2,0.1-0.4,0.1-0.6c0-0.2,0-0.4-0.1-0.6c-0.1-0.2-0.2-0.3-0.3-0.5
			s-0.3-0.2-0.4-0.3c-0.2-0.1-0.3-0.1-0.5-0.1h-2.2V73.1z"/>
		<path d="M108.1,70.1h-3v7.7h-1.8v-7.7h-3v-1.6h7.7V70.1z"/>
		<path d="M108.9,77.7v-9.2h6.2v1.6h-4.4v2.4h3.7v1.5h-3.7v3.8H108.9z"/>
		<path d="M119.8,77.8c-0.7,0-1.3-0.1-1.8-0.4c-0.6-0.3-1-0.6-1.4-1.1c-0.4-0.4-0.7-0.9-0.9-1.5c-0.2-0.6-0.3-1.1-0.3-1.7
			c0-0.6,0.1-1.2,0.3-1.8c0.2-0.6,0.5-1.1,0.9-1.5c0.4-0.4,0.9-0.8,1.4-1c0.6-0.3,1.2-0.4,1.8-0.4c0.7,0,1.3,0.1,1.8,0.4
			c0.6,0.3,1,0.6,1.4,1.1c0.4,0.4,0.7,0.9,0.9,1.5c0.2,0.6,0.3,1.1,0.3,1.7c0,0.6-0.1,1.2-0.3,1.8c-0.2,0.6-0.5,1.1-0.9,1.5
			c-0.4,0.4-0.9,0.8-1.4,1C121,77.7,120.4,77.8,119.8,77.8z M117.1,73.1c0,0.4,0.1,0.8,0.2,1.2c0.1,0.4,0.3,0.7,0.5,1
			c0.2,0.3,0.5,0.5,0.8,0.7s0.7,0.3,1.1,0.3c0.4,0,0.8-0.1,1.2-0.3c0.3-0.2,0.6-0.4,0.8-0.7c0.2-0.3,0.4-0.6,0.5-1
			c0.1-0.4,0.2-0.7,0.2-1.1c0-0.4-0.1-0.8-0.2-1.2c-0.1-0.4-0.3-0.7-0.5-1c-0.2-0.3-0.5-0.5-0.8-0.7c-0.3-0.2-0.7-0.3-1.1-0.3
			c-0.4,0-0.8,0.1-1.2,0.3c-0.3,0.2-0.6,0.4-0.8,0.7c-0.2,0.3-0.4,0.6-0.5,1C117.1,72.3,117.1,72.7,117.1,73.1z"/>
		<path d="M125.3,77.7v-9.2h1.8v7.7h4.7v1.6H125.3z"/>
		<path d="M132.6,77.7v-9.2h1.8v9.2H132.6z"/>
		<path d="M139.9,77.8c-0.7,0-1.3-0.1-1.8-0.4c-0.6-0.3-1-0.6-1.4-1.1c-0.4-0.4-0.7-0.9-0.9-1.5c-0.2-0.6-0.3-1.1-0.3-1.7
			c0-0.6,0.1-1.2,0.3-1.8c0.2-0.6,0.5-1.1,0.9-1.5c0.4-0.4,0.9-0.8,1.4-1c0.6-0.3,1.2-0.4,1.8-0.4c0.7,0,1.3,0.1,1.8,0.4
			c0.6,0.3,1,0.6,1.4,1.1c0.4,0.4,0.7,0.9,0.9,1.5c0.2,0.6,0.3,1.1,0.3,1.7c0,0.6-0.1,1.2-0.3,1.8c-0.2,0.6-0.5,1.1-0.9,1.5
			c-0.4,0.4-0.9,0.8-1.4,1C141.2,77.7,140.6,77.8,139.9,77.8z M137.2,73.1c0,0.4,0.1,0.8,0.2,1.2c0.1,0.4,0.3,0.7,0.5,1
			c0.2,0.3,0.5,0.5,0.8,0.7s0.7,0.3,1.1,0.3c0.4,0,0.8-0.1,1.2-0.3c0.3-0.2,0.6-0.4,0.8-0.7c0.2-0.3,0.4-0.6,0.5-1
			c0.1-0.4,0.2-0.7,0.2-1.1c0-0.4-0.1-0.8-0.2-1.2c-0.1-0.4-0.3-0.7-0.5-1c-0.2-0.3-0.5-0.5-0.8-0.7c-0.3-0.2-0.7-0.3-1.1-0.3
			c-0.4,0-0.8,0.1-1.2,0.3c-0.3,0.2-0.6,0.4-0.8,0.7c-0.2,0.3-0.4,0.6-0.5,1C137.3,72.3,137.2,72.7,137.2,73.1z"/>
		<path d="M154.8,70.1h-3v7.7h-1.8v-7.7h-3v-1.6h7.7V70.1z"/>
		<path d="M162,76.1v1.6h-6.4v-9.2h6.3v1.6h-4.5v2.2h3.9v1.5h-3.9v2.4H162z"/>
		<path d="M170.6,77.7v-6.1l-2.4,4.5h-1l-2.4-4.5v6.1h-1.8v-9.2h1.9l2.7,5.3l2.8-5.3h1.9v9.2H170.6z"/>
		<path d="M174,77.7v-9.2h3.9c0.4,0,0.8,0.1,1.2,0.3c0.4,0.2,0.7,0.4,0.9,0.7c0.3,0.3,0.5,0.6,0.6,1s0.2,0.7,0.2,1.1
			c0,0.4-0.1,0.8-0.2,1.1s-0.3,0.7-0.6,1c-0.3,0.3-0.6,0.5-0.9,0.7s-0.7,0.3-1.2,0.3h-2.2v3.1H174z M175.8,73.1h2.1
			c0.3,0,0.6-0.1,0.8-0.4c0.2-0.3,0.3-0.6,0.3-1.1c0-0.2,0-0.4-0.1-0.6c-0.1-0.2-0.2-0.3-0.3-0.5s-0.2-0.2-0.4-0.3s-0.3-0.1-0.5-0.1
			h-2V73.1z"/>
		<path d="M181.8,77.7v-9.2h1.8v7.7h4.7v1.6H181.8z"/>
		<path d="M191.7,68.5h1.6l3.5,9.2H195l-0.9-2.3h-3.2l-0.8,2.3h-1.8L191.7,68.5z M193.8,74.2l-1.3-3.6l-1.3,3.6H193.8z"/>
		<path d="M203.5,70.1h-3v7.7h-1.8v-7.7h-3v-1.6h7.7V70.1z"/>
		<path d="M210.7,76.1v1.6h-6.4v-9.2h6.3v1.6h-4.5v2.2h3.9v1.5h-3.9v2.4H210.7z"/>
	</g>
	<polygon class="st0" points="211,3 211,0 3,0 1,0 0,0 0,71.5 0,74 0,74.5 63,74.5 63,71.5 3,71.5 3,3 	"/>
</g>
</svg>
